# WaveFront *.obj file (generated by Cheetah3D)

mtllib box.mtl

g box
v -7.999995 -7.999995 7.999995
v -7.999995 7.999995 7.999995
v 7.999995 -7.999995 7.999995
v 7.999995 7.999995 7.999995
v 7.999995 -7.999995 -7.999995
v 7.999995 7.999995 -7.999995
v -7.999995 -7.999995 -7.999995
v -7.999995 7.999995 -7.999995

vt 0.750000 0.375000
vt 0.750000 0.625000
vt 1.000000 0.625000
vt 0.000000 0.375000
vt 0.000000 0.625000
vt 0.250000 0.625000
vt 0.250000 0.375000
vt 0.500000 0.625000
vt 0.500000 0.375000
vt 0.500000 0.125000
vt 0.250000 0.125000
vt 0.500000 0.875000
vt 1.000000 0.375000
vt 0.250000 0.875000

vn 0.000000 0.000000 -1.000000
vn -1.000000 0.000000 0.000000
vn 0.000000 0.000000 1.000000
vn 1.000000 0.000000 0.000000
vn 0.000000 -1.000000 0.000000
vn 0.000000 1.000000 0.000000

usemtl default
f 2/3/1 4/2/1 3/1/1
f 4/6/2 6/5/2 5/4/2
f 6/8/3 8/6/3 7/7/3
f 8/2/4 2/8/4 1/9/4
f 8/11/5 6/10/5 4/9/5
f 1/6/6 3/8/6 5/12/6
f 1/13/1 2/3/1 3/1/1
f 3/7/2 4/6/2 5/4/2
f 5/9/3 6/8/3 7/7/3
f 7/1/4 8/2/4 1/9/4
f 2/7/5 8/11/5 4/9/5
f 7/14/6 1/6/6 5/12/6

