# WaveFront *.obj file (generated by Cheetah3D)

mtllib cube1.mtl

g box
v -0.500000 0.000000 0.500000
v -0.500000 1.000000 0.500000
v 0.500000 0.000000 0.500000
v 0.500000 1.000000 0.500000
v 0.500000 0.000000 -0.500000
v 0.500000 1.000000 -0.500000
v -0.500000 0.000000 -0.500000
v -0.500000 1.000000 -0.500000

vt 0.250000 0.375000
vt 0.250000 0.625000
vt 0.500000 0.625000
vt 0.500000 0.375000
vt 0.750000 0.625000
vt 0.750000 0.375000
vt 1.000000 0.625000
vt 0.000000 0.375000
vt 0.000000 0.625000
vt 0.250000 0.875000
vt 0.500000 0.875000
vt 0.250000 0.125000
vt 1.000000 0.375000
vt 0.500000 0.125000

vn 0.000000 0.000000 1.000000
vn 1.000000 0.000000 0.000000
vn 0.000000 0.000000 -1.000000
vn -1.000000 0.000000 0.000000
vn 0.000000 1.000000 0.000000
vn 0.000000 -1.000000 0.000000

usemtl default
f 4/3/1 2/2/1 1/1/1
f 6/5/2 4/3/2 3/4/2
f 8/7/3 6/5/3 5/6/3
f 2/2/4 8/9/4 7/8/4
f 6/11/5 8/10/5 2/2/5
f 3/4/6 1/1/6 7/12/6
f 1/1/1 3/4/1 4/3/1
f 3/4/2 5/6/2 6/5/2
f 5/6/3 7/13/3 8/7/3
f 7/8/4 1/1/4 2/2/4
f 2/2/5 4/3/5 6/11/5
f 7/12/6 5/14/6 3/4/6

