# WaveFront *.obj file (generated by Cheetah3D)

mtllib msh_scale.mtl

g box
v -10.000000 -2.500000 0.000000
v -10.000000 2.500000 0.000000
v -9.848080 -2.500000 -1.736482
v -9.848080 2.500000 -1.736482
v -9.396927 -2.500000 -3.420202
v -9.396927 2.500000 -3.420202
v -8.660254 -2.500000 -5.000000
v -8.660254 2.500000 -5.000000
v -7.660446 -2.500000 -6.427877
v -7.660446 2.500000 -6.427877
v -6.427876 -2.500000 -7.660446
v -6.427876 2.500000 -7.660446
v -5.000000 -2.500000 -8.660254
v -5.000000 2.500000 -8.660254
v -3.420200 -2.500000 -9.396928
v -3.420200 2.500000 -9.396928
v -1.736481 -2.500000 -9.848080
v -1.736481 2.500000 -9.848080
v 0.000000 -2.500000 -10.000000
v 0.000000 2.500000 -10.000000
v 1.736483 -2.500000 -9.848079
v 1.736483 2.500000 -9.848079
v 3.420202 -2.500000 -9.396927
v 3.420202 2.500000 -9.396927
v 5.000001 -2.500000 -8.660254
v 5.000001 2.500000 -8.660254
v 6.427877 -2.500000 -7.660446
v 6.427877 2.500000 -7.660446
v 7.660446 -2.500000 -6.427876
v 7.660446 2.500000 -6.427876
v 8.660256 -2.500000 -4.999999
v 8.660256 2.500000 -4.999999
v 9.396928 -2.500000 -3.420200
v 9.396928 2.500000 -3.420200
v 9.848080 -2.500000 -1.736481
v 9.848080 2.500000 -1.736481
v 10.000000 -2.500000 0.000001
v 10.000000 2.500000 0.000001
v 9.848079 -2.500000 1.736485
v 9.848079 2.500000 1.736485
v 9.396927 -2.500000 3.420204
v 9.396927 2.500000 3.420204
v 8.660254 -2.500000 5.000002
v 8.660254 2.500000 5.000002
v 7.660444 -2.500000 6.427878
v 7.660444 2.500000 6.427878
v 6.427876 -2.500000 7.660446
v 6.427876 2.500000 7.660446
v 5.000000 -2.500000 8.660254
v 5.000000 2.500000 8.660254
v 3.420201 -2.500000 9.396927
v 3.420201 2.500000 9.396927
v 1.736481 -2.500000 9.848080
v 1.736481 2.500000 9.848080
v -0.000005 -2.500000 10.000000
v -0.000005 2.500000 10.000000
v -1.736486 -2.500000 9.848078
v -1.736486 2.500000 9.848078
v -3.420206 -2.500000 9.396927
v -3.420206 2.500000 9.396927
v -5.000004 -2.500000 8.660254
v -5.000004 2.500000 8.660254
v -6.427879 -2.500000 7.660443
v -6.427879 2.500000 7.660443
v -7.660446 -2.500000 6.427875
v -7.660446 2.500000 6.427875
v -8.660256 -2.500000 4.999998
v -8.660256 2.500000 4.999998
v -9.396928 -2.500000 3.420199
v -9.396928 2.500000 3.420199
v -9.848080 -2.500000 1.736480
v -9.848080 2.500000 1.736480

vt -0.500000 1.000000
vt -0.444444 1.000000
vt -0.444444 0.000000
vt -0.388889 1.000000
vt -0.388889 0.000000
vt -0.333333 1.000000
vt -0.333333 0.000000
vt -0.277778 1.000000
vt -0.277778 0.000000
vt -0.222222 1.000000
vt -0.222222 0.000000
vt -0.166667 1.000000
vt -0.166667 0.000000
vt -0.111111 1.000000
vt -0.111111 0.000000
vt -0.055556 1.000000
vt -0.055556 0.000000
vt 0.000000 1.000000
vt 0.000000 0.000000
vt 0.055556 1.000000
vt 0.055556 0.000000
vt 0.111111 1.000000
vt 0.111111 0.000000
vt 0.166667 1.000000
vt 0.166667 0.000000
vt 0.222222 1.000000
vt 0.222222 0.000000
vt 0.277778 1.000000
vt 0.277778 0.000000
vt 0.333333 1.000000
vt 0.333333 0.000000
vt 0.388889 1.000000
vt 0.388889 0.000000
vt 0.444445 1.000000
vt 0.444445 0.000000
vt 0.500000 1.000000
vt 0.500000 0.000000
vt 0.555556 1.000000
vt 0.555556 0.000000
vt 0.611111 1.000000
vt 0.611111 0.000000
vt 0.666667 1.000000
vt 0.666667 0.000000
vt 0.722222 1.000000
vt 0.722222 0.000000
vt 0.777778 1.000000
vt 0.777778 0.000000
vt 0.833333 1.000000
vt 0.833333 0.000000
vt 0.888889 1.000000
vt 0.888889 0.000000
vt 0.944444 1.000000
vt 0.944444 0.000000
vt 1.000000 1.000000
vt 1.000000 0.000000
vt 1.055556 1.000000
vt 1.055556 0.000000
vt 1.111111 1.000000
vt 1.111111 0.000000
vt 1.166667 1.000000
vt 1.166667 0.000000
vt 1.222222 1.000000
vt 1.222222 0.000000
vt 1.277778 1.000000
vt 1.277778 0.000000
vt 1.333333 1.000000
vt 1.333333 0.000000
vt 1.388889 1.000000
vt 1.388889 0.000000
vt 1.444445 1.000000
vt 1.444445 0.000000
vt 1.500000 1.000000
vt 1.500000 0.000000
vt -0.500000 0.000000

vn 0.999575 0.000000 0.029150
vn 0.979327 0.000000 0.202282
vn 0.989451 0.000000 0.144866
vn 0.929323 0.000000 0.369268
vn 0.949263 0.000000 0.314483
vn 0.851082 0.000000 0.525032
vn 0.880233 0.000000 0.474542
vn 0.746981 0.000000 0.664845
vn 0.784457 0.000000 0.620183
vn 0.620183 0.000000 0.784457
vn 0.664845 0.000000 0.746982
vn 0.474543 0.000000 0.880233
vn 0.525032 0.000000 0.851082
vn 0.314483 0.000000 0.949263
vn 0.369268 0.000000 0.929323
vn 0.144866 0.000000 0.989451
vn 0.202282 0.000000 0.979327
vn -0.029150 0.000000 0.999575
vn 0.029150 0.000000 0.999575
vn -0.202282 0.000000 0.979327
vn -0.144866 0.000000 0.989451
vn -0.369268 0.000000 0.929323
vn -0.314483 0.000000 0.949263
vn -0.525032 0.000000 0.851082
vn -0.474542 0.000000 0.880233
vn -0.664845 0.000000 0.746981
vn -0.620183 0.000000 0.784457
vn -0.784457 0.000000 0.620184
vn -0.746981 0.000000 0.664845
vn -0.880233 0.000000 0.474542
vn -0.851082 0.000000 0.525032
vn -0.949263 0.000000 0.314482
vn -0.929323 0.000000 0.369267
vn -0.989451 0.000000 0.144866
vn -0.979327 0.000000 0.202282
vn -0.999575 0.000000 -0.029150
vn -0.999575 0.000000 0.029150
vn -0.979327 0.000000 -0.202282
vn -0.989451 0.000000 -0.144866
vn -0.929323 0.000000 -0.369268
vn -0.949263 0.000000 -0.314483
vn -0.851082 0.000000 -0.525033
vn -0.880232 0.000000 -0.474543
vn -0.746981 0.000000 -0.664845
vn -0.784456 0.000000 -0.620184
vn -0.620183 0.000000 -0.784457
vn -0.664845 0.000000 -0.746981
vn -0.474542 0.000000 -0.880233
vn -0.525032 0.000000 -0.851082
vn -0.314483 0.000000 -0.949263
vn -0.369268 0.000000 -0.929323
vn -0.144866 0.000000 -0.989451
vn -0.202282 0.000000 -0.979327
vn 0.029151 0.000000 -0.999575
vn -0.029150 0.000000 -0.999575
vn 0.202282 0.000000 -0.979327
vn 0.144867 0.000000 -0.989451
vn 0.369268 0.000000 -0.929323
vn 0.314482 0.000000 -0.949263
vn 0.525033 0.000000 -0.851082
vn 0.474543 0.000000 -0.880232
vn 0.664845 0.000000 -0.746981
vn 0.620184 0.000000 -0.784456
vn 0.784456 0.000000 -0.620184
vn 0.746981 0.000000 -0.664845
vn 0.880233 0.000000 -0.474542
vn 0.851082 0.000000 -0.525032
vn 0.949263 0.000000 -0.314482
vn 0.929323 0.000000 -0.369267
vn 0.989451 0.000000 -0.144866
vn 0.979327 0.000000 -0.202282
vn 0.999575 0.000000 -0.029150

usemtl default
f 3/3/3 4/2/2 2/1/1
f 5/5/5 6/4/4 4/2/2
f 7/7/7 8/6/6 6/4/4
f 9/9/9 10/8/8 8/6/6
f 11/11/11 12/10/10 10/8/8
f 13/13/13 14/12/12 12/10/10
f 15/15/15 16/14/14 14/12/12
f 17/17/17 18/16/16 16/14/14
f 19/19/19 20/18/18 18/16/16
f 21/21/21 22/20/20 20/18/18
f 23/23/23 24/22/22 22/20/20
f 25/25/25 26/24/24 24/22/22
f 27/27/27 28/26/26 26/24/24
f 29/29/29 30/28/28 28/26/26
f 31/31/31 32/30/30 30/28/28
f 33/33/33 34/32/32 32/30/30
f 35/35/35 36/34/34 34/32/32
f 37/37/37 38/36/36 36/34/34
f 39/39/39 40/38/38 38/36/36
f 41/41/41 42/40/40 40/38/38
f 43/43/43 44/42/42 42/40/40
f 45/45/45 46/44/44 44/42/42
f 47/47/47 48/46/46 46/44/44
f 49/49/49 50/48/48 48/46/46
f 51/51/51 52/50/50 50/48/48
f 53/53/53 54/52/52 52/50/50
f 55/55/55 56/54/54 54/52/52
f 57/57/57 58/56/56 56/54/54
f 59/59/59 60/58/58 58/56/56
f 61/61/61 62/60/60 60/58/58
f 63/63/63 64/62/62 62/60/60
f 65/65/65 66/64/64 64/62/62
f 67/67/67 68/66/66 66/64/64
f 69/69/69 70/68/68 68/66/66
f 71/71/71 72/70/70 70/68/68
f 1/73/72 2/72/1 72/70/70
f 3/3/3 2/1/1 1/74/72
f 5/5/5 4/2/2 3/3/3
f 7/7/7 6/4/4 5/5/5
f 9/9/9 8/6/6 7/7/7
f 11/11/11 10/8/8 9/9/9
f 13/13/13 12/10/10 11/11/11
f 15/15/15 14/12/12 13/13/13
f 17/17/17 16/14/14 15/15/15
f 19/19/19 18/16/16 17/17/17
f 21/21/21 20/18/18 19/19/19
f 23/23/23 22/20/20 21/21/21
f 25/25/25 24/22/22 23/23/23
f 27/27/27 26/24/24 25/25/25
f 29/29/29 28/26/26 27/27/27
f 31/31/31 30/28/28 29/29/29
f 33/33/33 32/30/30 31/31/31
f 35/35/35 34/32/32 33/33/33
f 37/37/37 36/34/34 35/35/35
f 39/39/39 38/36/36 37/37/37
f 41/41/41 40/38/38 39/39/39
f 43/43/43 42/40/40 41/41/41
f 45/45/45 44/42/42 43/43/43
f 47/47/47 46/44/44 45/45/45
f 49/49/49 48/46/46 47/47/47
f 51/51/51 50/48/48 49/49/49
f 53/53/53 52/50/50 51/51/51
f 55/55/55 54/52/52 53/53/53
f 57/57/57 56/54/54 55/55/55
f 59/59/59 58/56/56 57/57/57
f 61/61/61 60/58/58 59/59/59
f 63/63/63 62/60/60 61/61/61
f 65/65/65 64/62/62 63/63/63
f 67/67/67 66/64/64 65/65/65
f 69/69/69 68/66/66 67/67/67
f 71/71/71 70/68/68 69/69/69
f 1/73/72 72/70/70 71/71/71

